<?xml version="1.0" encoding="UTF-8" standalone="no"?>
<!-- Created with Inkscape (http://www.inkscape.org/) -->

<svg
   version="1.1"
   id="svg48"
   width="793.33331"
   height="1122.6667"
   viewBox="0 0 793.33331 1122.6667"
   xmlns="http://www.w3.org/2000/svg"
   xmlns:svg="http://www.w3.org/2000/svg">
  <defs
     id="defs52">
    <rect
       x="331.84711"
       y="429.25494"
       width="611.56354"
       height="314.0773"
       id="rect564" />
    <clipPath
       clipPathUnits="userSpaceOnUse"
       id="clipPath86">
      <path
         d="M -257698010,-257697210 H 257698050 V 257698860 H -257698010 Z"
         id="path84" />
    </clipPath>
    <clipPath
       clipPathUnits="userSpaceOnUse"
       id="clipPath96">
      <path
         d="M -257698010,-257697210 H 257698050 V 257698860 H -257698010 Z"
         id="path94" />
    </clipPath>
    <clipPath
       clipPathUnits="userSpaceOnUse"
       id="clipPath110">
      <path
         d="M -257698010,-257697210 H 257698050 V 257698860 H -257698010 Z"
         id="path108" />
    </clipPath>
    <clipPath
       clipPathUnits="userSpaceOnUse"
       id="clipPath124">
      <path
         d="M -257698010,-257697210 H 257698050 V 257698860 H -257698010 Z"
         id="path122" />
    </clipPath>
    <clipPath
       clipPathUnits="userSpaceOnUse"
       id="clipPath138">
      <path
         d="M -257698010,-257697210 H 257698050 V 257698860 H -257698010 Z"
         id="path136" />
    </clipPath>
    <clipPath
       clipPathUnits="userSpaceOnUse"
       id="clipPath152">
      <path
         d="M -257698010,-257697210 H 257698050 V 257698860 H -257698010 Z"
         id="path150" />
    </clipPath>
    <clipPath
       clipPathUnits="userSpaceOnUse"
       id="clipPath166">
      <path
         d="M -257698010,-257697210 H 257698050 V 257698860 H -257698010 Z"
         id="path164" />
    </clipPath>
    <clipPath
       clipPathUnits="userSpaceOnUse"
       id="clipPath180">
      <path
         d="M -257698010,-257697210 H 257698050 V 257698860 H -257698010 Z"
         id="path178" />
    </clipPath>
    <clipPath
       clipPathUnits="userSpaceOnUse"
       id="clipPath194">
      <path
         d="M -257698010,-257697210 H 257698050 V 257698860 H -257698010 Z"
         id="path192" />
    </clipPath>
    <clipPath
       clipPathUnits="userSpaceOnUse"
       id="clipPath204">
      <path
         d="M -257698010,-257697210 H 257698050 V 257698860 H -257698010 Z"
         id="path202" />
    </clipPath>
    <clipPath
       clipPathUnits="userSpaceOnUse"
       id="clipPath214">
      <path
         d="M -257698010,-257697210 H 257698050 V 257698860 H -257698010 Z"
         id="path212" />
    </clipPath>
    <clipPath
       clipPathUnits="userSpaceOnUse"
       id="clipPath224">
      <path
         d="M -257698010,-257697210 H 257698050 V 257698860 H -257698010 Z"
         id="path222" />
    </clipPath>
    <clipPath
       clipPathUnits="userSpaceOnUse"
       id="clipPath234">
      <path
         d="M -257698010,-257697210 H 257698050 V 257698860 H -257698010 Z"
         id="path232" />
    </clipPath>
    <clipPath
       clipPathUnits="userSpaceOnUse"
       id="clipPath244">
      <path
         d="M -257698010,-257697210 H 257698050 V 257698860 H -257698010 Z"
         id="path242" />
    </clipPath>
    <clipPath
       clipPathUnits="userSpaceOnUse"
       id="clipPath254">
      <path
         d="M -257698010,-257697210 H 257698050 V 257698860 H -257698010 Z"
         id="path252" />
    </clipPath>
    <clipPath
       clipPathUnits="userSpaceOnUse"
       id="clipPath264">
      <path
         d="M -257698010,-257697210 H 257698050 V 257698860 H -257698010 Z"
         id="path262" />
    </clipPath>
    <clipPath
       clipPathUnits="userSpaceOnUse"
       id="clipPath274">
      <path
         d="M -257698010,-257697210 H 257698050 V 257698860 H -257698010 Z"
         id="path272" />
    </clipPath>
    <clipPath
       clipPathUnits="userSpaceOnUse"
       id="clipPath284">
      <path
         d="M -257698010,-257697210 H 257698050 V 257698860 H -257698010 Z"
         id="path282" />
    </clipPath>
    <clipPath
       clipPathUnits="userSpaceOnUse"
       id="clipPath294">
      <path
         d="M -257698010,-257697210 H 257698050 V 257698860 H -257698010 Z"
         id="path292" />
    </clipPath>
    <clipPath
       clipPathUnits="userSpaceOnUse"
       id="clipPath304">
      <path
         d="M -257698010,-257697210 H 257698050 V 257698860 H -257698010 Z"
         id="path302" />
    </clipPath>
    <clipPath
       clipPathUnits="userSpaceOnUse"
       id="clipPath314">
      <path
         d="M -257698010,-257697210 H 257698050 V 257698860 H -257698010 Z"
         id="path312" />
    </clipPath>
    <clipPath
       clipPathUnits="userSpaceOnUse"
       id="clipPath324">
      <path
         d="M -257698010,-257697210 H 257698050 V 257698860 H -257698010 Z"
         id="path322" />
    </clipPath>
    <clipPath
       clipPathUnits="userSpaceOnUse"
       id="clipPath334">
      <path
         d="M -257698010,-257697210 H 257698050 V 257698860 H -257698010 Z"
         id="path332" />
    </clipPath>
    <clipPath
       clipPathUnits="userSpaceOnUse"
       id="clipPath344">
      <path
         d="M -257698010,-257697210 H 257698050 V 257698860 H -257698010 Z"
         id="path342" />
    </clipPath>
    <clipPath
       clipPathUnits="userSpaceOnUse"
       id="clipPath354">
      <path
         d="M -257698010,-257697210 H 257698050 V 257698860 H -257698010 Z"
         id="path352" />
    </clipPath>
    <clipPath
       clipPathUnits="userSpaceOnUse"
       id="clipPath364">
      <path
         d="M -257698010,-257697210 H 257698050 V 257698860 H -257698010 Z"
         id="path362" />
    </clipPath>
    <clipPath
       clipPathUnits="userSpaceOnUse"
       id="clipPath374">
      <path
         d="M -257698010,-257697210 H 257698050 V 257698860 H -257698010 Z"
         id="path372" />
    </clipPath>
    <clipPath
       clipPathUnits="userSpaceOnUse"
       id="clipPath384">
      <path
         d="M -257698010,-257697210 H 257698050 V 257698860 H -257698010 Z"
         id="path382" />
    </clipPath>
    <clipPath
       clipPathUnits="userSpaceOnUse"
       id="clipPath394">
      <path
         d="M -257698010,-257697210 H 257698050 V 257698860 H -257698010 Z"
         id="path392" />
    </clipPath>
    <clipPath
       clipPathUnits="userSpaceOnUse"
       id="clipPath404">
      <path
         d="M -257698010,-257697210 H 257698050 V 257698860 H -257698010 Z"
         id="path402" />
    </clipPath>
    <clipPath
       clipPathUnits="userSpaceOnUse"
       id="clipPath414">
      <path
         d="M -257698010,-257697210 H 257698050 V 257698860 H -257698010 Z"
         id="path412" />
    </clipPath>
    <clipPath
       clipPathUnits="userSpaceOnUse"
       id="clipPath424">
      <path
         d="M -257698010,-257697210 H 257698050 V 257698860 H -257698010 Z"
         id="path422" />
    </clipPath>
    <clipPath
       clipPathUnits="userSpaceOnUse"
       id="clipPath436">
      <path
         d="M -257698010,-257697210 H 257698050 V 257698860 H -257698010 Z"
         id="path434" />
    </clipPath>
    <clipPath
       clipPathUnits="userSpaceOnUse"
       id="clipPath446">
      <path
         d="M -257698010,-257697210 H 257698050 V 257698860 H -257698010 Z"
         id="path444" />
    </clipPath>
  </defs>
  <g
     id="g56"
     transform="matrix(1.3333333,0,0,-1.3333333,0,1122.6667)">
    <g
       id="g80"
       transform="matrix(2.2468109,0,0,2.1183706,-203.71052,-808.7878)">
      <g
         id="g82"
         clip-path="url(#clipPath86)">
        <path
           d="m 154.3501,646.2074 c 0,10.6176 8.8871,19.225 19.85,19.225 10.9628,0 19.85,-8.6074 19.85,-19.225 0,-10.6177 -8.8872,-19.225 -19.85,-19.225 -10.9629,0 -19.85,8.6073 -19.85,19.225 z"
           style="fill:#993300;fill-opacity:1;fill-rule:evenodd;stroke:none"
           id="path88" />
      </g>
    </g>
    <g
       id="g90"
       transform="matrix(2.2468109,0,0,2.1183706,-203.71052,-808.7878)">
      <g
         id="g92"
         clip-path="url(#clipPath96)">
        <path
           d="m 226.1501,746.1499 c 0,13.6691 10.8236,24.75 24.175,24.75 13.3515,0 24.175,-11.0809 24.175,-24.75 0,-13.669 -10.8235,-24.75 -24.175,-24.75 -13.3514,0 -24.175,11.081 -24.175,24.75 z"
           style="fill:#993300;fill-opacity:1;fill-rule:evenodd;stroke:none"
           id="path98" />
        <g
           id="g100"
           transform="matrix(7.874016e-5,0,0,-7.874016e-5,226.1501,770.8999)">
          <path
             d="M 0,314325 C 0,140728.1 137458.7,0 307022.5,0 476586.3,0 614045,140728.1 614045,314325 614045,487921.9 476586.3,628650 307022.5,628650 137458.7,628650 0,487921.9 0,314325 Z"
             style="fill:none;stroke:#993300;stroke-width:25400;stroke-linecap:butt;stroke-linejoin:round;stroke-miterlimit:10;stroke-dasharray:none;stroke-opacity:1"
             id="path102" />
        </g>
      </g>
    </g>
    <g
       id="g104"
       transform="matrix(2.2468109,0,0,2.1183706,-203.71052,-808.7878)">
      <g
         id="g106"
         clip-path="url(#clipPath110)">
        <path
           d="m 168.6999,746 c 0,13.669 10.8235,24.75 24.175,24.75 13.3515,0 24.175,-11.081 24.175,-24.75 0,-13.669 -10.8235,-24.75 -24.175,-24.75 -13.3515,0 -24.175,11.081 -24.175,24.75 z"
           style="fill:#993300;fill-opacity:1;fill-rule:evenodd;stroke:none"
           id="path112" />
        <g
           id="g114"
           transform="matrix(7.874016e-5,0,0,-7.874016e-5,168.6999,770.75)">
          <path
             d="M 0,314325 C 0,140728.1 137458.7,0 307022.5,0 476586.3,0 614045,140728.1 614045,314325 614045,487921.9 476586.3,628650 307022.5,628650 137458.7,628650 0,487921.9 0,314325 Z"
             style="fill:none;stroke:#993300;stroke-width:25400;stroke-linecap:butt;stroke-linejoin:round;stroke-miterlimit:10;stroke-dasharray:none;stroke-opacity:1"
             id="path116" />
        </g>
      </g>
    </g>
    <g
       id="g118"
       transform="matrix(2.2468109,0,0,2.1183706,-203.71052,-808.7878)">
      <g
         id="g120"
         clip-path="url(#clipPath124)">
        <path
           d="m 176.3001,746.6248 c 0,9.0713 7.5999,16.425 16.975,16.425 9.375,0 16.975,-7.3537 16.975,-16.425 0,-9.0712 -7.6,-16.425 -16.975,-16.425 -9.3751,0 -16.975,7.3538 -16.975,16.425 z"
           style="fill:#c44100;fill-opacity:1;fill-rule:evenodd;stroke:none"
           id="path126" />
        <g
           id="g128"
           transform="matrix(7.874016e-5,0,0,-7.874016e-5,176.3001,763.0498)">
          <path
             d="M 0,208597.5 C 0,93392.28 96519.57,0 215582.5,0 334645.4,0 431165,93392.28 431165,208597.5 431165,323802.7 334645.4,417195 215582.5,417195 96519.57,417195 0,323802.7 0,208597.5 Z"
             style="fill:none;stroke:#993300;stroke-width:25400;stroke-linecap:butt;stroke-linejoin:round;stroke-miterlimit:10;stroke-dasharray:none;stroke-opacity:1"
             id="path130" />
        </g>
      </g>
    </g>
    <g
       id="g132"
       transform="matrix(2.2468109,0,0,2.1183706,-203.71052,-808.7878)">
      <g
         id="g134"
         clip-path="url(#clipPath138)">
        <path
           d="m 233.1999,746.825 c 0,9.0713 7.6,16.425 16.975,16.425 9.375,0 16.975,-7.3537 16.975,-16.425 0,-9.0713 -7.6,-16.425 -16.975,-16.425 -9.375,0 -16.975,7.3537 -16.975,16.425 z"
           style="fill:#c44100;fill-opacity:1;fill-rule:evenodd;stroke:none"
           id="path140" />
        <g
           id="g142"
           transform="matrix(7.874016e-5,0,0,-7.874016e-5,233.1999,763.25)">
          <path
             d="M 0,208597.5 C 0,93392.28 96519.57,0 215582.5,0 334645.4,0 431165,93392.28 431165,208597.5 431165,323802.7 334645.4,417195 215582.5,417195 96519.57,417195 0,323802.7 0,208597.5 Z"
             style="fill:none;stroke:#993300;stroke-width:25400;stroke-linecap:butt;stroke-linejoin:round;stroke-miterlimit:10;stroke-dasharray:none;stroke-opacity:1"
             id="path144" />
        </g>
      </g>
    </g>
    <g
       id="g146"
       transform="matrix(2.2468109,0,0,2.1183706,-203.71052,-808.7878)">
      <g
         id="g148"
         clip-path="url(#clipPath152)">
        <path
           d="m 172.3001,709.1749 c 0,27.3519 22.8223,49.525 50.975,49.525 28.1527,0 50.975,-22.1731 50.975,-49.525 0,-27.3519 -22.8223,-49.525 -50.975,-49.525 -28.1527,0 -50.975,22.1731 -50.975,49.525 z"
           style="fill:#993300;fill-opacity:1;fill-rule:evenodd;stroke:none"
           id="path154" />
        <g
           id="g156"
           transform="matrix(7.874016e-5,0,0,-7.874016e-5,172.3001,758.6999)">
          <path
             d="M 0,628967.5 C 0,281598.3 289843,0 647382.5,0 1004922,0 1294765,281598.3 1294765,628967.5 1294765,976336.6 1004922,1257935 647382.5,1257935 289843,1257935 0,976336.6 0,628967.5 Z"
             style="fill:none;stroke:#993300;stroke-width:25400;stroke-linecap:butt;stroke-linejoin:round;stroke-miterlimit:10;stroke-dasharray:none;stroke-opacity:1"
             id="path158" />
        </g>
      </g>
    </g>
    <g
       id="g160"
       transform="matrix(2.2468109,0,0,2.1183706,-203.71052,-808.7878)">
      <g
         id="g162"
         clip-path="url(#clipPath166)">
        <path
           d="m 173.6001,626.5829 c 0,27.3519 22.7439,49.525 50.8,49.525 28.056,0 50.8,-22.1731 50.8,-49.525 0,-27.3519 -22.744,-49.525 -50.8,-49.525 -28.0561,0 -50.8,22.1731 -50.8,49.525 z"
           style="fill:#993300;fill-opacity:1;fill-rule:evenodd;stroke:none"
           id="path168" />
        <g
           id="g170"
           transform="matrix(7.874016e-5,0,0,-7.874016e-5,173.6001,676.1079)">
          <path
             d="M 0,628967.5 C 0,281598.3 288848,0 645160,0 c 356312,0 645160,281598.3 645160,628967.5 0,347369.1 -288848,628967.5 -645160,628967.5 C 288848,1257935 0,976336.6 0,628967.5 Z"
             style="fill:none;stroke:#993300;stroke-width:25400;stroke-linecap:butt;stroke-linejoin:round;stroke-miterlimit:10;stroke-dasharray:none;stroke-opacity:1"
             id="path172" />
        </g>
      </g>
    </g>
    <g
       id="g174"
       transform="matrix(2.2468109,0,0,2.1183706,-203.71052,-808.7878)">
      <g
         id="g176"
         clip-path="url(#clipPath180)">
        <path
           d="m 191.1999,625.2824 c 0,18.4463 15.6812,33.4 35.025,33.4 19.3438,0 35.025,-14.9537 35.025,-33.4 0,-18.4463 -15.6812,-33.4 -35.025,-33.4 -19.3438,0 -35.025,14.9537 -35.025,33.4 z"
           style="fill:#c44100;fill-opacity:1;fill-rule:evenodd;stroke:none"
           id="path182" />
        <g
           id="g184"
           transform="matrix(7.874016e-5,0,0,-7.874016e-5,191.1999,658.6824)">
          <path
             d="M 0,424180 C 0,189911.8 199151.6,0 444817.5,0 690483.4,0 889635,189911.8 889635,424180 889635,658448.1 690483.4,848360 444817.5,848360 199151.6,848360 0,658448.1 0,424180 Z"
             style="fill:none;stroke:#993300;stroke-width:25400;stroke-linecap:butt;stroke-linejoin:round;stroke-miterlimit:10;stroke-dasharray:none;stroke-opacity:1"
             id="path186" />
        </g>
      </g>
    </g>
    <g
       id="g188"
       transform="matrix(2.2468109,0,0,2.1183706,-203.71052,-808.7878)">
      <g
         id="g190"
         clip-path="url(#clipPath194)">
        <path
           d="m 168.25,601.408 c 0,13.669 10.8235,24.75 24.175,24.75 13.3515,0 24.175,-11.081 24.175,-24.75 0,-13.6691 -10.8235,-24.75 -24.175,-24.75 -13.3515,0 -24.175,11.0809 -24.175,24.75 z"
           style="fill:#7e2a00;fill-opacity:1;fill-rule:evenodd;stroke:none"
           id="path196" />
      </g>
    </g>
    <g
       id="g198"
       transform="matrix(2.2468109,0,0,2.1183706,-203.71052,-808.7878)">
      <g
         id="g200"
         clip-path="url(#clipPath204)">
        <path
           d="m 182.6501,598.558 c 0,5.7438 4.1302,10.4 9.225,10.4 5.0949,0 9.225,-4.6562 9.225,-10.4 0,-5.7437 -4.1301,-10.4 -9.225,-10.4 -5.0948,0 -9.225,4.6563 -9.225,10.4 z"
           style="fill:#c44100;fill-opacity:1;fill-rule:evenodd;stroke:none"
           id="path206" />
      </g>
    </g>
    <g
       id="g208"
       transform="matrix(2.2468109,0,0,2.1183706,-203.71052,-808.7878)">
      <g
         id="g210"
         clip-path="url(#clipPath214)">
        <path
           d="m 180.8001,613.4329 c 0,2.5819 1.4551,4.675 3.25,4.675 1.7949,0 3.25,-2.0931 3.25,-4.675 0,-2.582 -1.4551,-4.675 -3.25,-4.675 -1.7949,0 -3.25,2.093 -3.25,4.675 z"
           style="fill:#c44100;fill-opacity:1;fill-rule:evenodd;stroke:none"
           id="path216" />
      </g>
    </g>
    <g
       id="g218"
       transform="matrix(2.2468109,0,0,2.1183706,-203.71052,-808.7878)">
      <g
         id="g220"
         clip-path="url(#clipPath224)">
        <path
           d="m 188.25,617.3831 c 0,2.5819 1.4551,4.675 3.25,4.675 1.7949,0 3.25,-2.0931 3.25,-4.675 0,-2.5819 -1.4551,-4.675 -3.25,-4.675 -1.7949,0 -3.25,2.0931 -3.25,4.675 z"
           style="fill:#c44100;fill-opacity:1;fill-rule:evenodd;stroke:none"
           id="path226" />
      </g>
    </g>
    <g
       id="g228"
       transform="matrix(2.2468109,0,0,2.1183706,-203.71052,-808.7878)">
      <g
         id="g230"
         clip-path="url(#clipPath234)">
        <path
           d="m 196.5,614.733 c 0,2.5819 1.4551,4.675 3.25,4.675 1.7949,0 3.25,-2.0931 3.25,-4.675 0,-2.582 -1.4551,-4.675 -3.25,-4.675 -1.7949,0 -3.25,2.093 -3.25,4.675 z"
           style="fill:#c44100;fill-opacity:1;fill-rule:evenodd;stroke:none"
           id="path236" />
      </g>
    </g>
    <g
       id="g238"
       transform="matrix(2.2468109,0,0,2.1183706,-203.71052,-808.7878)">
      <g
         id="g240"
         clip-path="url(#clipPath244)">
        <path
           d="m 230.9499,601.3403 c 0,13.6691 10.8235,24.75 24.175,24.75 13.3515,0 24.175,-11.0809 24.175,-24.75 0,-13.669 -10.8235,-24.75 -24.175,-24.75 -13.3515,0 -24.175,11.081 -24.175,24.75 z"
           style="fill:#7e2a00;fill-opacity:1;fill-rule:evenodd;stroke:none"
           id="path246" />
      </g>
    </g>
    <g
       id="g248"
       transform="matrix(2.2468109,0,0,2.1183706,-203.71052,-808.7878)">
      <g
         id="g250"
         clip-path="url(#clipPath254)">
        <path
           d="m 246.9499,598.4403 c 0,5.7438 4.1302,10.4 9.225,10.4 5.0948,0 9.225,-4.6562 9.225,-10.4 0,-5.7437 -4.1302,-10.4 -9.225,-10.4 -5.0948,0 -9.225,4.6563 -9.225,10.4 z"
           style="fill:#c44100;fill-opacity:1;fill-rule:evenodd;stroke:none"
           id="path256" />
      </g>
    </g>
    <g
       id="g258"
       transform="matrix(2.2468109,0,0,2.1183706,-203.71052,-808.7878)">
      <g
         id="g260"
         clip-path="url(#clipPath264)">
        <path
           d="m 245.1001,613.3155 c 0,2.5819 1.455,4.675 3.25,4.675 1.7949,0 3.25,-2.0931 3.25,-4.675 0,-2.582 -1.4551,-4.675 -3.25,-4.675 -1.795,0 -3.25,2.093 -3.25,4.675 z"
           style="fill:#c44100;fill-opacity:1;fill-rule:evenodd;stroke:none"
           id="path266" />
      </g>
    </g>
    <g
       id="g268"
       transform="matrix(2.2468109,0,0,2.1183706,-203.71052,-808.7878)">
      <g
         id="g270"
         clip-path="url(#clipPath274)">
        <path
           d="m 252.5501,617.2654 c 0,2.5819 1.455,4.675 3.25,4.675 1.7949,0 3.25,-2.0931 3.25,-4.675 0,-2.5819 -1.4551,-4.675 -3.25,-4.675 -1.795,0 -3.25,2.0931 -3.25,4.675 z"
           style="fill:#c44100;fill-opacity:1;fill-rule:evenodd;stroke:none"
           id="path276" />
      </g>
    </g>
    <g
       id="g278"
       transform="matrix(2.2468109,0,0,2.1183706,-203.71052,-808.7878)">
      <g
         id="g280"
         clip-path="url(#clipPath284)">
        <path
           d="m 260.8001,614.6156 c 0,2.5819 1.455,4.675 3.25,4.675 1.7949,0 3.25,-2.0931 3.25,-4.675 0,-2.582 -1.4551,-4.675 -3.25,-4.675 -1.795,0 -3.25,2.093 -3.25,4.675 z"
           style="fill:#c44100;fill-opacity:1;fill-rule:evenodd;stroke:none"
           id="path286" />
      </g>
    </g>
    <g
       id="g288"
       transform="matrix(2.2468109,0,0,2.1183706,-203.71052,-808.7878)">
      <g
         id="g290"
         clip-path="url(#clipPath294)">
        <path
           d="m 184,712.933 c 0,9.9273 7.7343,17.975 17.275,17.975 9.5407,0 17.275,-8.0477 17.275,-17.975 0,-9.9274 -7.7343,-17.975 -17.275,-17.975 -9.5407,0 -17.275,8.0476 -17.275,17.975 z"
           style="fill:#ffffff;fill-opacity:1;fill-rule:evenodd;stroke:none"
           id="path296" />
      </g>
    </g>
    <g
       id="g298"
       transform="matrix(2.2468109,0,0,2.1183706,-203.71052,-808.7878)">
      <g
         id="g300"
         clip-path="url(#clipPath304)">
        <path
           d="m 229.8001,712.933 c 0,9.9273 7.7342,17.975 17.275,17.975 9.5407,0 17.275,-8.0477 17.275,-17.975 0,-9.9274 -7.7343,-17.975 -17.275,-17.975 -9.5408,0 -17.275,8.0476 -17.275,17.975 z"
           style="fill:#ffffff;fill-opacity:1;fill-rule:evenodd;stroke:none"
           id="path306" />
      </g>
    </g>
    <g
       id="g308"
       transform="matrix(2.2468109,0,0,2.1183706,-203.71052,-808.7878)">
      <g
         id="g310"
         clip-path="url(#clipPath314)">
        <path
           d="m 258.5,645.2322 c 0,11.0733 8.8871,20.05 19.85,20.05 10.9628,0 19.85,-8.9767 19.85,-20.05 0,-11.0733 -8.8872,-20.05 -19.85,-20.05 -10.9629,0 -19.85,8.9767 -19.85,20.05 z"
           style="fill:#993300;fill-opacity:1;fill-rule:evenodd;stroke:none"
           id="path316" />
      </g>
    </g>
    <g
       id="g318"
       transform="matrix(2.2468109,0,0,2.1183706,-203.71052,-808.7878)">
      <g
         id="g320"
         clip-path="url(#clipPath324)">
        <path
           d="m 166.6001,641.5073 c 0,4.3216 3.2683,7.825 7.3,7.825 4.0317,0 7.3,-3.5034 7.3,-7.825 0,-4.3216 -3.2683,-7.825 -7.3,-7.825 -4.0317,0 -7.3,3.5034 -7.3,7.825 z"
           style="fill:#c44100;fill-opacity:1;fill-rule:evenodd;stroke:none"
           id="path326" />
      </g>
    </g>
    <g
       id="g328"
       transform="matrix(2.2468109,0,0,2.1183706,-203.71052,-808.7878)">
      <g
         id="g330"
         clip-path="url(#clipPath334)">
        <path
           d="m 163.8001,650.9574 c 0,1.9468 1.1416,3.525 2.55,3.525 1.4083,0 2.55,-1.5782 2.55,-3.525 0,-1.9468 -1.1417,-3.525 -2.55,-3.525 -1.4084,0 -2.55,1.5782 -2.55,3.525 z"
           style="fill:#c44100;fill-opacity:1;fill-rule:evenodd;stroke:none"
           id="path336" />
      </g>
    </g>
    <g
       id="g338"
       transform="matrix(2.2468109,0,0,2.1183706,-203.71052,-808.7878)">
      <g
         id="g340"
         clip-path="url(#clipPath344)">
        <path
           d="m 171.3001,654.7074 c 0,1.9468 1.1416,3.525 2.55,3.525 1.4083,0 2.55,-1.5782 2.55,-3.525 0,-1.9468 -1.1417,-3.525 -2.55,-3.525 -1.4084,0 -2.55,1.5782 -2.55,3.525 z"
           style="fill:#c44100;fill-opacity:1;fill-rule:evenodd;stroke:none"
           id="path346" />
      </g>
    </g>
    <g
       id="g348"
       transform="matrix(2.2468109,0,0,2.1183706,-203.71052,-808.7878)">
      <g
         id="g350"
         clip-path="url(#clipPath354)">
        <path
           d="m 179.6999,652.8574 c 0,1.9468 1.1417,3.525 2.55,3.525 1.4083,0 2.55,-1.5782 2.55,-3.525 0,-1.9468 -1.1417,-3.525 -2.55,-3.525 -1.4083,0 -2.55,1.5782 -2.55,3.525 z"
           style="fill:#c44100;fill-opacity:1;fill-rule:evenodd;stroke:none"
           id="path356" />
      </g>
    </g>
    <g
       id="g358"
       transform="matrix(2.2468109,0,0,2.1183706,-203.71052,-808.7878)">
      <g
         id="g360"
         clip-path="url(#clipPath364)">
        <path
           d="m 269.1502,652.3574 c 0,1.9468 1.1416,3.525 2.55,3.525 1.4083,0 2.55,-1.5782 2.55,-3.525 0,-1.9468 -1.1417,-3.525 -2.55,-3.525 -1.4084,0 -2.55,1.5782 -2.55,3.525 z"
           style="fill:#c44100;fill-opacity:1;fill-rule:evenodd;stroke:none"
           id="path366" />
      </g>
    </g>
    <g
       id="g368"
       transform="matrix(2.2468109,0,0,2.1183706,-203.71052,-808.7878)">
      <g
         id="g370"
         clip-path="url(#clipPath374)">
        <path
           d="m 276.6502,656.1074 c 0,1.9468 1.1416,3.525 2.55,3.525 1.4083,0 2.55,-1.5782 2.55,-3.525 0,-1.9468 -1.1417,-3.525 -2.55,-3.525 -1.4084,0 -2.55,1.5782 -2.55,3.525 z"
           style="fill:#c44100;fill-opacity:1;fill-rule:evenodd;stroke:none"
           id="path376" />
      </g>
    </g>
    <g
       id="g378"
       transform="matrix(2.2468109,0,0,2.1183706,-203.71052,-808.7878)">
      <g
         id="g380"
         clip-path="url(#clipPath384)">
        <path
           d="m 284.8001,652.4074 c 0,1.9468 1.1416,3.525 2.55,3.525 1.4083,0 2.55,-1.5782 2.55,-3.525 0,-1.9468 -1.1417,-3.525 -2.55,-3.525 -1.4084,0 -2.55,1.5782 -2.55,3.525 z"
           style="fill:#c44100;fill-opacity:1;fill-rule:evenodd;stroke:none"
           id="path386" />
      </g>
    </g>
    <g
       id="g388"
       transform="matrix(2.2468109,0,0,2.1183706,-203.71052,-808.7878)">
      <g
         id="g390"
         clip-path="url(#clipPath394)">
        <path
           d="m 188.9002,711.458 c 0,6.3789 4.9584,11.55 11.075,11.55 6.1165,0 11.075,-5.1711 11.075,-11.55 h -5.5375 c 0,3.3207 -2.4793,6.0126 -5.5375,6.0126 -3.0583,0 -5.5376,-2.6919 -5.5376,-6.0126 z"
           style="fill:#000000;fill-opacity:1;fill-rule:evenodd;stroke:none"
           id="path396" />
      </g>
    </g>
    <g
       id="g398"
       transform="matrix(2.2468109,0,0,2.1183706,-203.71052,-808.7878)">
      <g
         id="g400"
         clip-path="url(#clipPath404)">
        <path
           d="m 237.3001,710.708 c 0,6.3789 4.9584,11.55 11.075,11.55 6.1165,0 11.075,-5.1711 11.075,-11.55 h -5.5375 c 0,3.3207 -2.4792,6.0126 -5.5375,6.0126 -3.0583,0 -5.5375,-2.6919 -5.5375,-6.0126 z"
           style="fill:#000000;fill-opacity:1;fill-rule:evenodd;stroke:none"
           id="path406" />
      </g>
    </g>
    <g
       id="g408"
       transform="matrix(2.2468109,0,0,2.1183706,-203.71052,-808.7878)">
      <g
         id="g410"
         clip-path="url(#clipPath414)">
        <path
           d="m 216.25,693.8853 7.475,4.4308 7.475,-4.4308 -2.8552,-7.1691 h -9.2396 z"
           style="fill:#000000;fill-opacity:1;fill-rule:evenodd;stroke:none"
           id="path416" />
      </g>
    </g>
    <g
       id="g418"
       transform="matrix(2.2468109,0,0,2.1183706,-203.71052,-808.7878)">
      <g
         id="g420"
         clip-path="url(#clipPath424)">
        <g
           id="g426"
           transform="matrix(7.874016e-5,0,0,-7.874016e-5,223.8501,691.9661)">
          <path
             d="M 0,0 1,212090"
             style="fill:none;stroke:#000000;stroke-width:38100;stroke-linecap:butt;stroke-linejoin:round;stroke-miterlimit:10;stroke-dasharray:none;stroke-opacity:1"
             id="path428" />
        </g>
      </g>
    </g>
    <g
       id="g430"
       transform="matrix(2.2468109,0,0,2.1183706,-203.71052,-808.7878)">
      <g
         id="g432"
         clip-path="url(#clipPath436)">
        <path
           d="m 239.7892,692.5302 c 7.1738,-4.868 6.1217,-12.156 -2.3499,-16.2783 -8.4715,-4.1222 -21.1546,-3.5177 -28.3284,1.3503 -6.0478,4.104 -6.3664,10.0634 -0.7682,14.373 l 3.6682,-1.5734 c -6.0748,-3.3326 -5.43,-8.4229 1.44,-11.3697 6.87,-2.9468 17.3637,-2.634 23.4384,0.6985 5.8194,3.1925 5.5055,8.0314 -0.7162,11.04 z"
           style="fill:#000000;fill-opacity:1;fill-rule:evenodd;stroke:none"
           id="path438" />
      </g>
    </g>
    <g
       id="g440"
       transform="matrix(2.2468109,0,0,2.1183706,-203.71052,-808.7878)">
      <g
         id="g442"
         clip-path="url(#clipPath446)">
        <path
           d="m 271.9499,642.9074 c 0,4.3217 3.2683,7.825 7.3,7.825 4.0317,0 7.3,-3.5033 7.3,-7.825 0,-4.3216 -3.2683,-7.825 -7.3,-7.825 -4.0317,0 -7.3,3.5034 -7.3,7.825 z"
           style="fill:#c44100;fill-opacity:1;fill-rule:evenodd;stroke:none"
           id="path448" />
      </g>
    </g>
    <ellipse
       style="fill:#000000;fill-opacity:0;stroke:none;stroke-width:0.75;stroke-opacity:1"
       id="path4594"
       cx="195.02209"
       cy="-653.16913"
       transform="scale(1,-1)"
       rx="60.054417"
       ry="126.91914" />
    <ellipse
       style="fill:#000000;fill-opacity:0;stroke:none;stroke-width:0.75;stroke-opacity:1"
       id="path4596"
       cx="264.98239"
       cy="-323.79852"
       transform="scale(1,-1)"
       rx="153.5412"
       ry="146.73091" />
    <ellipse
       style="fill:#000000;fill-opacity:0;stroke:none;stroke-width:0.75;stroke-opacity:1"
       id="path4598"
       cx="270.55444"
       cy="-331.84705"
       transform="scale(1,-1)"
       rx="135.58679"
       ry="128.77649" />
    <ellipse
       style="fill:#000000;fill-opacity:0;stroke:none;stroke-width:0.75;stroke-opacity:1"
       id="path4600"
       cx="281.69858"
       cy="-318.84555"
       transform="scale(1,-1)"
       rx="160.3515"
       ry="156.6368" />
    <ellipse
       style="fill:#ffffff;fill-opacity:0;stroke:none;stroke-width:0.75;stroke-opacity:1"
       id="path4602"
       transform="scale(1,-1)"
       cx="287.88974"
       cy="-609.21179"
       rx="173.97208"
       ry="162.20885" />
    <ellipse
       style="fill:#ffffff;fill-opacity:0;stroke:none;stroke-width:0.75;stroke-opacity:1"
       id="path4656"
       cx="194.40297"
       cy="-240.21759"
       transform="scale(1,-1)"
       rx="102.77354"
       ry="86.676483" />
    <rect
       style="fill:#ffffff;fill-opacity:0;stroke:none;stroke-width:0.75;stroke-opacity:1"
       id="rect4710"
       width="340.51474"
       height="282.31769"
       x="75.532372"
       y="-433.38232"
       transform="scale(1,-1)" />
    <rect
       style="fill:#ffffff;fill-opacity:0;stroke:none;stroke-width:0.75;stroke-opacity:1"
       id="rect4712"
       width="149.82649"
       height="142.39708"
       x="220.40591"
       y="-335.56177"
       transform="scale(1,-1)" />
    <text
       xml:space="preserve"
       transform="matrix(1.2469571,0,0,-1.4559153,-383.53168,1051.391)"
       id="text562"
       style="font-style:normal;font-variant:normal;font-weight:bold;font-stretch:condensed;font-size:69.4093px;font-family:'American Typewriter';-inkscape-font-specification:'American Typewriter, Bold Condensed';font-variant-ligatures:normal;font-variant-caps:normal;font-variant-numeric:normal;font-variant-east-asian:normal;white-space:pre;shape-inside:url(#rect564);fill:#a05a2c"><tspan
         x="331.84766"
         y="491.46287"
         id="tspan2269"><tspan
           style="font-size:53.4366px"
           id="tspan2267">Babysitting Services</tspan></tspan></text>
  </g>
</svg>
